<svg xmlns="http://www.w3.org/2000/svg" xmlns:xlink="http://www.w3.org/1999/xlink" viewBox="0 0 26.87 24"><defs><style>.cls-1{fill:url(#Degradado_sin_nombre_62);}</style><linearGradient id="Degradado_sin_nombre_62" x1="13.43" y1="-3.17" x2="13.43" y2="28" gradientUnits="userSpaceOnUse"><stop offset="0" stop-color="#fcee21"/><stop offset="1" stop-color="#fbb03b"/></linearGradient></defs><title>alertWarning</title><g id="Capa_2" data-name="Capa 2"><g id="Capa_1-2" data-name="Capa 1"><path class="cls-1" d="M26.66,22.33l-3.13-5.54L14.34.5A.89.89,0,0,0,13.72,0a1.05,1.05,0,0,0-1.14.53c-.37.64-.73,1.29-1.1,1.94Q5.84,12.41.2,22.31a1.07,1.07,0,0,0,1,1.69c4.07,0,8.14,0,12.21,0H25.69A1,1,0,0,0,26.66,22.33ZM13.57,7.09a1.69,1.69,0,0,1,1.64,1.85c-.13,1.38-.29,2.76-.44,4.14l-.3,2.64a1,1,0,0,1-.73.91,1,1,0,0,1-1.17-.91c-.21-1.92-.41-3.83-.61-5.75l-.11-1A1.67,1.67,0,0,1,13.57,7.09Zm0,13.8a1.66,1.66,0,0,1-1.68-1.66,1.68,1.68,0,1,1,3.35,0A1.66,1.66,0,0,1,13.57,20.89Z"/></g></g></svg>