<svg xmlns="http://www.w3.org/2000/svg" viewBox="0 0 33.58 30"><defs><style>.cls-1{fill:#f2f2f2;}</style></defs><title>alertMenu</title><g id="Capa_2" data-name="Capa 2"><g id="Capa_1-2" data-name="Capa 1"><path class="cls-1" d="M33.32,27.91,29.42,21,17.92.62A1.08,1.08,0,0,0,17.15,0a1.3,1.3,0,0,0-1.42.65c-.47.81-.92,1.62-1.38,2.43Q7.3,15.5.24,27.89A1.34,1.34,0,0,0,1.47,30c5.08-.05,10.16,0,15.25,0H32.11A1.28,1.28,0,0,0,33.32,27.91ZM17,8.86A2.11,2.11,0,0,1,19,11.17c-.16,1.73-.36,3.45-.55,5.18-.12,1.1-.25,2.2-.37,3.31a1.26,1.26,0,0,1-.91,1.13,1.2,1.2,0,0,1-1.47-1.14q-.39-3.58-.76-7.19c0-.46-.1-.93-.13-1.3A2.08,2.08,0,0,1,17,8.86Zm0,17.26A2.1,2.1,0,1,1,19.05,24,2.09,2.09,0,0,1,17,26.12Z"/></g></g></svg>