<svg id="Capa_1" data-name="Capa 1" xmlns="http://www.w3.org/2000/svg" xmlns:xlink="http://www.w3.org/1999/xlink" viewBox="0 0 40 35.73"><defs><style>.cls-1{fill:#fff;}.cls-2{fill:url(#Degradado_sin_nombre_55);}</style><linearGradient id="Degradado_sin_nombre_55" y1="17.87" x2="40" y2="17.87" gradientUnits="userSpaceOnUse"><stop offset="0" stop-color="#ec242d"/><stop offset="1" stop-color="#c11b22"/></linearGradient></defs><title>alertIcon</title><rect class="cls-1" x="16.87" y="10.08" width="6" height="22"/><path class="cls-2" d="M39.69,33.24,35,25,21.35.74A1.3,1.3,0,0,0,20.43,0a1.57,1.57,0,0,0-1.7.78c-.55,1-1.1,1.93-1.64,2.89Q8.69,18.46.29,33.21a1.59,1.59,0,0,0,1.45,2.52c6.06-.06,12.11,0,18.17,0H38.24A1.52,1.52,0,0,0,39.69,33.24ZM20.2,10.55a2.56,2.56,0,0,1,2.49,2.81c-.2,2.1-.45,4.19-.68,6.29q-.22,2-.45,4A1.52,1.52,0,0,1,20.47,25a1.45,1.45,0,0,1-1.78-1.38c-.32-2.91-.62-5.82-.92-8.72l-.17-1.59A2.53,2.53,0,0,1,20.2,10.55Zm0,20.55a2.49,2.49,0,0,1,0-5,2.49,2.49,0,1,1,0,5Z"/></svg>