<svg xmlns="http://www.w3.org/2000/svg" viewBox="0 0 26.83 30"><defs><style>.cls-1{fill:#0f998f;}</style></defs><title>gestorimagenMenu</title><g id="Capa_2" data-name="Capa 2"><g id="Capa_1-2" data-name="Capa 1"><path class="cls-1" d="M25,0H1.82A1.81,1.81,0,0,0,0,1.82V28.18A1.81,1.81,0,0,0,1.82,30H25a1.82,1.82,0,0,0,1.82-1.82V1.82A1.82,1.82,0,0,0,25,0ZM1.82,1.82H25v20.9H1.82Zm22.25,20H2.7V16a2.73,2.73,0,0,1,.64-1.75L8.64,7.9A1.35,1.35,0,0,1,10.76,8l6,8.17,3.1-3.28a1.36,1.36,0,0,1,2,0l1.55,1.83a2.76,2.76,0,0,1,.64,1.76v5.37ZM18.18,6.59a2.5,2.5,0,1,1,2.5,2.5A2.5,2.5,0,0,1,18.18,6.59Z"/></g></g></svg>