<svg xmlns="http://www.w3.org/2000/svg" viewBox="0 0 23.99 24"><defs><style>.cls-1{fill:#f2f2f2;}</style></defs><title>info</title><g id="Capa_2" data-name="Capa 2"><g id="Capa_1-2" data-name="Capa 1"><path class="cls-1" d="M24,12A12,12,0,1,1,12.41,0,12,12,0,0,1,24,12ZM12,.91A11.1,11.1,0,1,0,23.11,12,11.09,11.09,0,0,0,12,.91Z"/><path class="cls-1" d="M13.18,18.3H10.71V9.76h2.47Z"/><path class="cls-1" d="M12,5.58a1.28,1.28,0,0,1,1.42,1.28A1.3,1.3,0,0,1,12,8.17a1.38,1.38,0,0,1-1.48-1.31A1.35,1.35,0,0,1,12,5.58Z"/></g></g></svg>