<?xml version="1.0" encoding="utf-8"?>
<!-- Generator: Adobe Illustrator 20.1.0, SVG Export Plug-In . SVG Version: 6.00 Build 0)  -->
<svg version="1.1" id="Capa_1" xmlns="http://www.w3.org/2000/svg" xmlns:xlink="http://www.w3.org/1999/xlink" x="0px" y="0px"
	 viewBox="0 0 18.1 18.1" style="enable-background:new 0 0 18.1 18.1;" xml:space="preserve">
<style type="text/css">
	.st0{fill:url(#SVGID_1_);stroke:#333333;stroke-width:0.5;stroke-linecap:round;stroke-linejoin:round;stroke-miterlimit:10;}
	.st1{fill:url(#SVGID_2_);stroke:#333333;stroke-width:0.5;stroke-linecap:round;stroke-linejoin:round;stroke-miterlimit:10;}
	.st2{fill:url(#SVGID_3_);}
</style>
<g>
	<g>
		<linearGradient id="SVGID_1_" gradientUnits="userSpaceOnUse" x1="9.0664" y1="16.7295" x2="9.0664" y2="2.021">
			<stop  offset="0" style="stop-color:#006837"/>
			<stop  offset="0.5699" style="stop-color:#39B54A"/>
		</linearGradient>
		<path class="st0" d="M9.1,0.3c-4.9,0-8.8,3.9-8.8,8.8c0,4.9,3.9,8.8,8.8,8.8c4.9,0,8.8-3.9,8.8-8.8C17.9,4.2,13.9,0.3,9.1,0.3z
			 M9.1,15c-3.3,0-5.9-2.6-5.9-5.9c0-3.3,2.6-5.9,5.9-5.9S15,5.8,15,9.1C15,12.3,12.3,15,9.1,15z"/>
		<linearGradient id="SVGID_2_" gradientUnits="userSpaceOnUse" x1="11.2989" y1="12.9348" x2="6.833" y2="5.1995">
			<stop  offset="0" style="stop-color:#006837"/>
			<stop  offset="0.5699" style="stop-color:#39B54A"/>
		</linearGradient>
		<circle class="st1" cx="9.1" cy="9.1" r="4.5"/>
	</g>
	<radialGradient id="SVGID_3_" cx="8.2158" cy="7.6196" r="1.9734" gradientUnits="userSpaceOnUse">
		<stop  offset="0" style="stop-color:#F4FD92"/>
		<stop  offset="1" style="stop-color:#F4FD92;stop-opacity:0"/>
	</radialGradient>
	<circle class="st2" cx="8.2" cy="7.6" r="2"/>
</g>
</svg>
